<?xml version="1.0" encoding="UTF-8"?>
<svg xmlns="http://www.w3.org/2000/svg" xmlns:xlink="http://www.w3.org/1999/xlink" width="16px" height="12px" viewBox="0 0 16 12" version="1.1">
<g id="surface1">
<path style=" stroke:none;fill-rule:nonzero;fill:rgb(100%,0%,33.333333%);fill-opacity:1;" d="M 16.203125 4.230469 C 16.132812 4.230469 15.457031 4.25 14.648438 4.019531 C 14.617188 4.007812 14.578125 4 14.546875 3.988281 C 13.851562 3.777344 13.269531 3.324219 12.855469 2.71875 C 12.632812 2.394531 12.390625 2.101562 12.109375 1.832031 C 10.707031 0.460938 8.628906 -0.175781 6.59375 0.347656 C 4.546875 0.875 3.023438 2.414062 2.449219 4.292969 C 2.339844 4.652344 2.257812 5.039062 2.21875 5.421875 C 2.148438 6.144531 1.84375 6.832031 1.339844 7.347656 C 1.3125 7.367188 1.289062 7.394531 1.269531 7.417969 C 0.664062 8 0.0585938 8.3125 0 8.34375 L 5.253906 7.011719 C 5.746094 8.445312 7.269531 9.28125 8.761719 8.910156 C 10.253906 8.527344 11.191406 7.0625 10.9375 5.570312 Z M 8.730469 8.757812 C 7.320312 9.121094 5.878906 8.324219 5.402344 6.972656 L 10.808594 5.601562 C 11.03125 7.011719 10.140625 8.394531 8.730469 8.757812 Z M 5.261719 6.398438 C 5.082031 5.015625 5.96875 3.6875 7.351562 3.332031 C 8.730469 2.980469 10.140625 3.738281 10.648438 5.039062 Z M 10.796875 4.996094 C 10.273438 3.617188 8.78125 2.820312 7.320312 3.191406 C 5.847656 3.554688 4.921875 4.976562 5.113281 6.4375 L 4.101562 6.691406 C 3.742188 4.652344 5.011719 2.65625 7.039062 2.144531 C 9.0625 1.628906 11.128906 2.777344 11.785156 4.734375 Z M 9.003906 9.855469 C 6.964844 10.371094 4.910156 9.222656 4.253906 7.265625 L 2.710938 8.40625 C 3.851562 10.933594 6.683594 12.355469 9.46875 11.652344 C 12.25 10.945312 14.054688 8.34375 13.851562 5.570312 L 11.945312 5.308594 C 12.300781 7.347656 11.039062 9.34375 9.003906 9.855469 Z M 9.003906 9.855469 "/>
</g>
</svg>
