<?xml version="1.0" encoding="utf-8"?>
<!-- Generator: Adobe Illustrator 23.0.5, SVG Export Plug-In . SVG Version: 6.00 Build 0)  -->
<svg version="1.1" id="Layer_1" xmlns="http://www.w3.org/2000/svg" xmlns:xlink="http://www.w3.org/1999/xlink" x="0px" y="0px"
	 viewBox="0 0 82.98 123" style="enable-background:new 0 0 82.98 123;" xml:space="preserve">
<style type="text/css">
	.st0{fill:#3A2E2D;}
	.st1{fill:#FFFFFF;}
	.st2{fill:none;stroke:#000000;stroke-linecap:round;stroke-miterlimit:10;}
	.st3{opacity:0.49;}
</style>
<path class="st0" d="M82.94,98.87c-0.21,7.19-1.45,14.34-3.68,21.17c-4.81,0.46-9.59,0.87-14.36,1.22
	c-0.54,0.04-1.09,0.08-1.63,0.11c-0.77,0.07-1.53,0.12-2.3,0.17c-3.01,0.2-6.02,0.37-9.03,0.52c-3.4,0.17-6.82,0.3-10.24,0.38
	c-2.33,0.06-4.66,0.12-6.98,0.17c-0.73,0.02-1.47,0.04-2.2,0.06c-4.43,0.11-8.86,0.22-13.29,0.33c-2.1,0.05-4.21,0.11-6.31,0.16
	c-1.7,0.05-3.47,0.07-5.13-0.23c-1.24-0.22-2.43-0.61-3.48-1.31c-3.42-2.26-4.32-6.87-4.31-10.96c0-8.21,2.44-16.4,6.95-23.26
	c0.09-0.14,0.18-0.29,0.27-0.44c0.62-1.06,1.03-2.24,1.22-3.47c0.06-0.33,0.1-0.67,0.13-1.01c0.14-1.92-0.01-3.85-0.04-5.78
	c-0.15-10.36,3.18-20.74,9.37-29.05c3.49-4.67,5.91-10.01,6.94-15.7c0.17-0.89,0.3-1.78,0.39-2.69c0.55-5.39,1.78-10.7,3.64-15.79
	c0.85-2.31,1.82-4.57,2.8-6.83l2.61-6.05c0.32-0.76,1.4-0.79,1.75-0.04c2.49,5.29,4.42,10.84,5.74,16.54c0.15,0.64,0.74,1.09,1.39,1
	c4.49-0.58,9.01,0.58,12.71,3.2c0.53,0.38,1.26,0.25,1.71-0.23c2.16-2.34,4.79-4.27,7.61-5.76c0.72-0.38,1.46-0.74,2.2-1.08
	c1.99-0.92,4.05-1.73,6.11-2.5c0.35-0.13,0.71-0.1,1.01,0.04s0.55,0.39,0.67,0.73c0.05,0.11,0.08,0.23,0.09,0.35
	c0.46,5.07,0.73,10.22-0.78,15.1c-0.22,0.72-0.51,1.41-0.85,2.08c-0.55,1.05-1.23,2.06-2.19,2.79c-0.14,0.11-0.27,0.24-0.32,0.41
	c-0.12,0.43,0.01,0.89,0.04,1.32c0.04,0.53,0.05,1.07,0.08,1.61c0,1.27,0.14,2.57,0.22,3.85c0.09,1.32,0.19,2.65,0.31,3.97
	c0.01,0.11,0.02,0.22,0.03,0.33c0.02,0.08,0.02,0.15,0.03,0.22c0.02,0.33,0.06,0.66,0.1,0.99c0,0.03,0,0.06,0.01,0.09
	c0.13,1.33,0.31,2.65,0.56,3.96c0.63,3.27,1.72,6.43,2.64,9.62c1.02,3.36,2.04,6.72,3.05,10.08c1.45,4.64,2.85,9.65,3.69,14.51
	C82.75,88.75,83.1,93.82,82.94,98.87z"/>
<path class="st1" d="M30.92,30.39c-0.12,0.24-0.23,0.5-0.22,0.77c0.03,0.48,0.47,0.82,0.87,1.08c3.02,1.91,6.66,2.82,10.22,2.57
	c0.23-0.02,0.46-0.04,0.66-0.14c0.54-0.27,0.68-0.97,0.75-1.58c0.04-0.34,0.06-0.72-0.17-0.97c-0.19-0.2-0.49-0.25-0.77-0.28
	c-1.67-0.21-3.32-0.56-4.93-1.05c-1.62-0.49-3.21-1.11-4.73-1.85c-0.21-0.1-0.42-0.25-0.64-0.32c-0.26-0.09-0.28,0.15-0.39,0.38
	C31.36,29.46,31.14,29.92,30.92,30.39z"/>
<path class="st2" d="M31.68,28.56c3.46,1.96,7.37,3.1,11.34,3.3"/>
<path class="st2" d="M42.94,34.88c-2.26,0.06-4.55,0.12-6.75-0.38c-2.21-0.5-4.36-1.62-5.64-3.48"/>
<g>
	<path d="M36.55,31.38c0.22,0.41,0.26,0.81,0.25,1.21c-0.02,0.4-0.1,0.79-0.4,1.18l-0.21-0.01c-0.27-0.41-0.32-0.81-0.31-1.21
		c0.02-0.4,0.1-0.79,0.35-1.18L36.55,31.38z"/>
</g>
<path class="st1" d="M55.02,34.31c-0.28-0.09-0.58-0.18-0.85-0.06c-0.31,0.14-0.43,0.51-0.51,0.84c-0.1,0.39-0.19,0.83,0.01,1.17
	c0.2,0.33,0.61,0.46,0.98,0.55c1.85,0.49,3.71,0.97,5.61,1.18c1.9,0.21,3.85,0.16,5.68-0.41c-0.03-0.43-0.05-0.88-0.1-1.31
	c-0.04-0.36-0.2-0.4-0.54-0.4c-0.84,0.01-1.68-0.01-2.52-0.07c-1.68-0.11-3.36-0.36-5.01-0.73C56.84,34.87,55.92,34.61,55.02,34.31z
	"/>
<g>
	<path d="M56.01,34.47c0.18,0.41,0.21,0.81,0.2,1.2c-0.01,0.2-0.03,0.4-0.09,0.59c-0.06,0.2-0.13,0.39-0.26,0.59l-0.21-0.01
		c-0.12-0.2-0.17-0.41-0.22-0.61c-0.04-0.2-0.05-0.4-0.04-0.6c0.02-0.4,0.09-0.79,0.3-1.18L56.01,34.47z"/>
</g>
<path class="st2" d="M66.07,35.6c-4.41,0.26-8.87-0.37-13.03-1.84"/>
<path class="st2" d="M65.86,37.56c-0.74,0.36-1.59,0.39-2.42,0.41c-1.67,0.04-3.36,0.07-5.02-0.12s-3.32-0.61-4.79-1.42"/>
<g>
	<path d="M49.53,44.67c-1.21-0.08-2.36-0.2-3.52-0.24c-1.16-0.05-2.31-0.02-3.51-0.03l-0.09-0.45c1.15-0.5,2.41-0.66,3.66-0.6
		c1.24,0.07,2.49,0.35,3.58,0.96L49.53,44.67z"/>
</g>
<path d="M34.72,122.61c-0.73,0.02-1.47,0.04-2.2,0.06l1-6.14l0.57,0.01L34.72,122.61z"/>
<path d="M64.92,120.47c0,0.22,0,0.45-0.01,0.68l-0.01,0.11c-0.54,0.04-1.09,0.08-1.63,0.11l0.04-0.14l0.07-0.28
	c0.04-0.19,0.08-0.39,0.11-0.58c0.07-0.39,0.09-0.78,0.13-1.18c0.06-0.8,0.03-1.61-0.04-2.45l0.35-0.12
	c0.44,0.76,0.72,1.62,0.87,2.5C64.89,119.56,64.91,120.02,64.92,120.47z"/>
<g>
	<path d="M42.62,29.99c0.12-0.1,0.12-0.15,0.1-0.18l-0.06-0.1l-0.11-0.2l-0.23-0.4l-0.47-0.79c-0.32-0.52-0.68-1.02-1.07-1.48
		c-0.77-0.93-1.69-1.71-2.71-2.19c-1.02-0.49-2.17-0.65-3.33-0.65c-1.16,0.01-2.35,0.2-3.56,0.4l-0.19-0.7
		c1.17-0.45,2.42-0.78,3.72-0.83c1.3-0.05,2.66,0.2,3.84,0.87c1.17,0.68,2.03,1.7,2.7,2.77c0.33,0.54,0.62,1.1,0.9,1.65l0.4,0.84
		l0.19,0.42l0.09,0.21l0.05,0.11c0.01,0.04,0.05,0.06,0.2,0.03L42.62,29.99z"/>
</g>
<g>
	<path d="M53,29.77c2.29,0.66,4.55,1.05,6.84,1.02c1.13-0.01,2.3-0.14,3.5-0.16c1.19-0.01,2.46,0.1,3.55,0.64
		c-2.39-0.16-4.56,0.58-7.04,0.59c-2.44,0-4.9-0.67-6.85-2.07L53,29.77z"/>
</g>
<path d="M19.23,123c-3.5-3.27-6.28-7.41-8.11-11.92c-1.84-4.53-3-9.26-3.55-14.1C7.2,93.64,7.15,90.3,7.22,86.96
	c0.62-1.06,1.03-2.24,1.22-3.47c0.31,4.44,0.82,8.86,1.33,13.23c0.57,4.65,1.5,9.3,2.98,13.74C14.23,114.91,16.37,119.15,19.23,123z
	"/>
<path class="st3" d="M49.68,51.9c-8.39,2.67-17.92,1.51-25.43-3.1C9.74,70.28,3.8,97.33,7.79,122.93c-1.24-0.22-2.43-0.61-3.48-1.31
	c-3.42-2.26-4.32-6.87-4.31-10.96c0-8.21,2.44-16.4,6.95-23.26c0.96-1.46,1.49-3.17,1.62-4.92c0.14-1.92-0.01-3.85-0.04-5.78
	c-0.15-10.36,3.18-20.74,9.37-29.05c3.49-4.67,5.91-10.01,6.94-15.7c1.06,3.51,2.78,6.81,5.09,9.65
	C34.75,47.52,42.07,51.34,49.68,51.9z"/>
<g>
	<path d="M62.1,43.03c1.36-0.58,2.93-0.71,4.4-0.45c1.49,0.25,2.86,0.83,4.25,1.28c2.73,0.98,5.71,1.33,8.47,0.57
		c1.33-0.36,2.57-1.24,2.86-2.57c0.33-1.31-0.24-2.74-1.27-3.64c-1.01-0.91-2.49-1.36-3.79-0.97c-0.65,0.14-1.18,0.59-1.36,1.19
		c-0.21,0.58,0.22,1.34,0.96,1.43l0,0.02c-0.37,0.09-0.79-0.07-1.08-0.36c-0.29-0.3-0.42-0.76-0.35-1.18
		c0.12-0.86,0.88-1.52,1.66-1.69c1.54-0.46,3.23,0.05,4.39,1.08c1.18,1.01,1.88,2.69,1.5,4.28c-0.17,0.79-0.63,1.51-1.25,2.02
		c-0.61,0.52-1.34,0.86-2.08,1.05c-2.95,0.77-6.07,0.33-8.83-0.71c-1.39-0.48-2.76-1.04-4.15-1.35c-1.41-0.29-2.87-0.3-4.3,0.05
		L62.1,43.03z"/>
</g>
<g>
	<path d="M74.46,47.71c-1.25-0.66-2.5-1.25-3.82-1.65c-0.66-0.22-1.32-0.39-2-0.53c-0.68-0.15-1.36-0.26-2.06-0.37
		c0.7-0.09,1.42-0.07,2.12,0.01c0.7,0.09,1.4,0.25,2.08,0.46C72.12,46.09,73.41,46.76,74.46,47.71z"/>
</g>
<g>
	<path d="M26.82,41.23c-1.37-0.31-2.74-0.56-4.12-0.61c-0.69-0.04-1.38-0.04-2.07,0c-0.69,0.03-1.38,0.1-2.09,0.18
		c0.66-0.27,1.35-0.43,2.05-0.54c0.7-0.09,1.42-0.13,2.13-0.09C24.14,40.27,25.56,40.58,26.82,41.23z"/>
</g>
<g>
	<path d="M31.36,39.82c-2.66-0.96-5.46-1.38-8.21-1.06c-1.37,0.14-2.75,0.45-4.19,0.61c-1.43,0.15-2.95,0.15-4.38-0.39
		c-1.47-0.54-2.6-1.81-3.05-3.29c-0.23-0.74-0.26-1.55-0.06-2.32c0.2-0.77,0.65-1.46,1.24-1.97c1.16-1.02,2.95-1.4,4.37-0.64
		c1.4,0.73,2.13,2.45,1.7,3.85l-0.11-0.02c0.02-0.7-0.16-1.37-0.49-1.94c-0.34-0.56-0.85-1-1.41-1.26
		c-1.14-0.53-2.58-0.23-3.51,0.62c-0.97,0.83-1.29,2.21-0.88,3.42c0.39,1.22,1.36,2.23,2.53,2.7c1.22,0.48,2.61,0.53,3.97,0.4
		c1.37-0.13,2.76-0.42,4.2-0.55C25.96,37.78,28.92,38.36,31.36,39.82z"/>
</g>
</svg>
