<svg xmlns="http://www.w3.org/2000/svg" viewBox="0 0 232.49 51.89"><defs><style>.cls-1{fill:#dd4854;}</style></defs><title>shuriken</title><g id="Layer_2" data-name="Layer 2"><path class="cls-1" d="M42.08,21.56H30.33V33.3A11.75,11.75,0,1,1,42.08,21.56Z"/><path class="cls-1" d="M8.77,21.56A21.58,21.58,0,0,0,30.33,43.12v-5A16.56,16.56,0,0,1,30.33,5V0A21.58,21.58,0,0,0,8.77,21.56Z"/><path class="cls-1" d="M30.33,46.89A25.35,25.35,0,0,1,5,21.56H0A30.37,30.37,0,0,0,30.33,51.89h0v-5Z"/><path class="cls-1" d="M42.82,51.89a21.07,21.07,0,0,1-5.92-.83,13.83,13.83,0,0,1-4.56-2.15l2-4.49a15.43,15.43,0,0,0,8.5,2.69,9.6,9.6,0,0,0,2.85-.35,3.32,3.32,0,0,0,1.6-1,2.16,2.16,0,0,0,.52-1.43A1.94,1.94,0,0,0,47,42.71a6.36,6.36,0,0,0-2.14-1C44,41.46,43,41.21,42,41s-2.14-.52-3.2-.86a14,14,0,0,1-2.93-1.33,6.53,6.53,0,0,1-2.15-2.13,6.35,6.35,0,0,1-.83-3.39,7.19,7.19,0,0,1,1.2-4,8.24,8.24,0,0,1,3.6-2.91,14.87,14.87,0,0,1,6.06-1.08,20.23,20.23,0,0,1,4.78.57,13.78,13.78,0,0,1,4.16,1.71l-1.84,4.53a15.51,15.51,0,0,0-3.61-1.53,13.31,13.31,0,0,0-3.53-.5,8.31,8.31,0,0,0-2.83.41,3.35,3.35,0,0,0-1.59,1A2.47,2.47,0,0,0,38.78,33a1.91,1.91,0,0,0,.81,1.6,6.3,6.3,0,0,0,2.13,1c.88.25,1.86.49,2.93.74s2.13.53,3.2.84a12.45,12.45,0,0,1,2.92,1.29,6.47,6.47,0,0,1,2.15,2.14,6.14,6.14,0,0,1,.83,3.35,7,7,0,0,1-1.21,4,8.53,8.53,0,0,1-3.63,2.91A14.71,14.71,0,0,1,42.82,51.89Z"/><path class="cls-1" d="M64.18,51.89h-6V26.13h6ZM76.32,41.33H63.74v-5H76.32Zm-.44-15.2h6V51.89h-6Z"/><path class="cls-1" d="M99,51.89q-5.48,0-8.57-3t-3.09-8.72V25.69h6v14.2c0,2.46.5,4.22,1.51,5.3a6.33,6.33,0,0,0,8.46,0c1-1.08,1.51-2.84,1.51-5.3V25.69h5.89V40.12q0,5.66-3.09,8.72C105.52,50.87,102.67,51.89,99,51.89Z"/><path class="cls-1" d="M116.56,51.89V26.13h11.15a14.57,14.57,0,0,1,6,1.12,8.82,8.82,0,0,1,3.87,3.22,9,9,0,0,1,1.36,5,8.83,8.83,0,0,1-1.36,5,8.74,8.74,0,0,1-3.87,3.18,14.58,14.58,0,0,1-6,1.1h-7.83l2.65-2.61v9.79Zm6-9.57-2.65-2.79h7.5a6.07,6.07,0,0,0,4.12-1.2A4.15,4.15,0,0,0,132.87,35a4.12,4.12,0,0,0-1.37-3.31,6.12,6.12,0,0,0-4.12-1.18h-7.5l2.65-2.84Zm10.41,9.57-6.44-9.35h6.37l6.51,9.35Z"/><path class="cls-1" d="M155.68,51.89V26.13h5.92V51.89ZM161,45.56l-.33-6.88,12.33-13h6.62l-11.11,12-3.31,3.53Zm12.29,6.18-9.16-11.22,3.9-4.23,12.22,15.45Z"/><path class="cls-1" d="M188.83,47.11h14v4.78H182.91V26.13h19.46v4.79H188.83Zm-.44-10.6h12.4v4.64h-12.4Z"/><path class="cls-1" d="M207.6,51.89V26.13h4.93l15.19,18.55h-2.39V26.13h5.89V51.89h-4.89L211.09,33.34h2.39V51.89Z"/><circle class="cls-1" cx="147.77" cy="10.62" r="3.48"/><rect class="cls-1" x="140.34" y="16.98" width="14.85" height="2.12" transform="translate(165.81 -129.73) rotate(90)"/><polygon class="cls-1" points="146.71 25.46 142.8 30.63 147.51 51.89 147.77 25.46 146.71 25.46"/><polygon class="cls-1" points="148.83 25.46 152.61 30.63 147.51 51.89 147.65 25.46 148.83 25.46"/></g></svg>