<svg xmlns="http://www.w3.org/2000/svg" viewBox="0 0 251.22 51.89"><defs><style>.cls-1{fill:#dd4854;}</style></defs><title>shuriken</title><g id="Layer_2" data-name="Layer 2"><path class="cls-1" d="M42.08,21.56H30.33V33.3A11.75,11.75,0,1,1,42.08,21.56Z"/><path class="cls-1" d="M8.77,21.56A21.58,21.58,0,0,0,30.33,43.12v-5A16.56,16.56,0,0,1,30.33,5V0A21.58,21.58,0,0,0,8.77,21.56Z"/><path class="cls-1" d="M30.33,46.89A25.35,25.35,0,0,1,5,21.56H0A30.37,30.37,0,0,0,30.33,51.89h0v-5Z"/><path class="cls-1" d="M62.83,40.86A21.08,21.08,0,0,1,56.9,40a13.63,13.63,0,0,1-4.56-2.16l2-4.48a14.93,14.93,0,0,0,3.92,1.93,14.5,14.5,0,0,0,4.58.75,9.28,9.28,0,0,0,2.85-.35,3.31,3.31,0,0,0,1.6-1,2.18,2.18,0,0,0,.52-1.44A2,2,0,0,0,67,31.67a6.81,6.81,0,0,0-2.13-1C64,30.42,63,30.18,62,30s-2.13-.53-3.2-.87a13.48,13.48,0,0,1-2.93-1.32,6.56,6.56,0,0,1-2.15-2.14,6.29,6.29,0,0,1-.83-3.38,7.14,7.14,0,0,1,1.2-4,8.13,8.13,0,0,1,3.61-2.91,14.78,14.78,0,0,1,6.05-1.09,20.76,20.76,0,0,1,4.78.57,14.05,14.05,0,0,1,4.16,1.72L70.81,21a16.22,16.22,0,0,0-3.61-1.53A13.29,13.29,0,0,0,63.67,19a8.33,8.33,0,0,0-2.83.4,3.27,3.27,0,0,0-1.58,1.05,2.44,2.44,0,0,0-.48,1.49,1.9,1.9,0,0,0,.81,1.6,6.39,6.39,0,0,0,2.13,1c.88.24,1.86.49,2.93.73s2.13.53,3.2.85a12.27,12.27,0,0,1,2.92,1.29,6.56,6.56,0,0,1,2.16,2.13,6.25,6.25,0,0,1,.82,3.35,6.93,6.93,0,0,1-1.21,4,8.42,8.42,0,0,1-3.62,2.91A14.6,14.6,0,0,1,62.83,40.86Z"/><path class="cls-1" d="M84.18,40.86h-6V15.1h6ZM96.32,30.29H83.74v-5H96.32ZM95.88,15.1h6V40.86h-6Z"/><path class="cls-1" d="M119,40.86q-5.48,0-8.57-3.06t-3.09-8.72V14.66h6v14.2q0,3.67,1.51,5.3a6.33,6.33,0,0,0,8.46,0q1.52-1.62,1.51-5.3V14.66h5.89V29.08q0,5.67-3.09,8.72T119,40.86Z"/><path class="cls-1" d="M136.57,40.86V15.1h11.14a14.49,14.49,0,0,1,6,1.12,8.78,8.78,0,0,1,3.86,3.22,9,9,0,0,1,1.36,5,8.42,8.42,0,0,1-5.22,8.14,14.83,14.83,0,0,1-6,1.1h-7.83l2.65-2.61v9.79Zm6-9.57-2.65-2.8h7.5a6.12,6.12,0,0,0,4.12-1.19,4.17,4.17,0,0,0,1.37-3.3,4.15,4.15,0,0,0-1.37-3.31,6.18,6.18,0,0,0-4.12-1.18h-7.5l2.65-2.83Zm10.41,9.57-6.44-9.35h6.37l6.51,9.35Z"/><path class="cls-1" d="M175.68,40.86V15.1h5.92V40.86ZM181,34.53l-.33-6.88,12.33-13h6.62l-11.11,12-3.31,3.54Zm12.29,6.18-9.16-11.23,3.9-4.23,12.22,15.46Z"/><path class="cls-1" d="M208.83,36.07h14v4.79H202.91V15.1h19.46v4.78H208.83Zm-.44-10.6h12.4v4.64h-12.4Z"/><path class="cls-1" d="M227.6,40.86V15.1h4.93l15.2,18.54h-2.4V15.1h5.89V40.86h-4.89L231.09,22.31h2.4V40.86Z"/><circle class="cls-1" cx="167.66" cy="7.05" r="3.48"/><rect class="cls-1" x="160.24" y="13.41" width="14.85" height="2.12" transform="translate(182.13 -153.19) rotate(90)"/><polygon class="cls-1" points="166.6 21.89 162.69 27.06 167.4 48.32 167.66 21.89 166.6 21.89"/><polygon class="cls-1" points="168.72 21.89 172.51 27.06 167.4 48.32 167.54 21.89 168.72 21.89"/></g></svg>